:SAMPLES-PER-SECOND 30
:FULLY-SPECIFIED
:DEGREES
35
root  34.83836857 36.55539385 -14.43674133 9.214535713 -4.952110767 3.351943016
lowerback  -8.013020515 -0.8055190444 -0.5290561318
upperback  -3.901410103 -0.5885570049 -3.283400059
thorax  0.4298110008 -0.1420570016 -3.139509916
lowerneck  -6.946430206 -13.59440041 -10.78349972
upperneck  12.21399975 -18.50179863 10.71220016
head  6.871029854 -8.678700447 3.350950003
lclavicle  0 -4.497500157e-015 -2.743230041e-014
lhumerus  -47.98189926 29.54599953 64.23899841
lradius  0.006620147731 -6.507048965e-006 30.39894295
lwrist  4.824992743e-007 -3.790274832e-007 -27.68540192
lhand  -3.519791282e-031 -36.91109848 -10.63360023
lfingers  90 7.125020027 -90
lthumb  94.81243896 -25.4698925 101.0770493
rclavicle  0 -4.497500157e-015 -2.743230041e-014
rhumerus  -56.45000076 -29.70159912 -57.63029861
rradius  -5.16745672e-007 2.214343908e-008 57.97249985
rwrist  -2.867388866e-005 0.1017204151 -164.3370056
rhand  -3.017554215e-031 -2.137300014 -7.684050083
rfingers  -90 -7.125020027 -90
rthumb  -86.48752594 -8.00454998 -66.21246338
rfemur  -11.50794983 15.68757057 12.74145603
rtibia  -0.4032358229 -1.059131742 18.97164726
rfoot  1.177908778 -21.76881981 -35.27512741
rtoes  4.091169834 19.6069622 -102.0400314
lfemur  -6.23439455 -16.15919495 -21.16599083
ltibia  4.29619503 -0.3803366125 11.71844864
lfoot  0.6598421931 -23.16496849 36.80766678
ltoes  -8.6760149 -18.0900116 -116.1707077
36
root  34.83545799 36.55606968 -14.43480094 9.21602726 -4.951110363 3.345888376
lowerback  -8.027298927 -0.8332369328 -0.5445399284
upperback  -3.892549992 -0.6226919889 -3.29975009
thorax  0.4450849891 -0.1585990041 -3.150779963
lowerneck  -6.925330162 -13.59759998 -10.73789978
upperneck  12.1243 -18.50639725 10.70510006
head  6.834060192 -8.68350029 3.345360041
lclavicle  0 -4.497500157e-015 -2.743230041e-014
lhumerus  -48.03770065 29.59989929 64.16809845
lradius  0.006620147731 -6.507048965e-006 30.40909386
lwrist  4.824992743e-007 -3.790274832e-007 -27.74510002
lhand  -3.52209515e-031 -36.90370178 -10.60690022
lfingers  90 7.125020027 -90
lthumb  94.80329895 -25.44379425 101.0667496
rclavicle  0 -4.497500157e-015 -2.743230041e-014
rhumerus  -56.47660065 -29.30410004 -57.87319946
rradius  -5.16745672e-007 2.214343908e-008 59.62530136
rwrist  -2.867388866e-005 0.1017204151 -164.9109955
rhand  -3.019166977e-031 -2.466710091 -7.658199787
rfingers  -90 -7.125020027 -90
rthumb  -86.53772736 -8.01058197 -66.53179932
rfemur  -11.49899387 15.69568348 12.75445938
rtibia  -0.4011436701 -1.058568835 18.96275902
rfoot  1.186002731 -21.77490044 -35.26287079
rtoes  4.06947279 19.60696983 -101.9753418
lfemur  -6.205026627 -16.12409401 -21.16755104
ltibia  4.322502136 -0.3660951257 11.68028641
lfoot  0.6683017015 -23.17656898 36.79750443
ltoes  -8.7183218 -18.07018852 -116.3070374
37
root  34.83289283 36.55674551 -14.43270135 9.204264641 -4.947770596 3.35904026
lowerback  -8.065689087 -0.8747159243 -0.5741230845
upperback  -3.873769999 -0.67721802 -3.26560998
thorax  0.483844012 -0.1860039979 -3.103669882
lowerneck  -6.979849815 -13.59070015 -10.78820038
upperneck  12.10564423 -18.48735809 10.69802475
head  6.839650154 -8.677260399 3.347830057
lclavicle  0 -4.497500157e-015 -2.743230041e-014
lhumerus  -48.08140182 29.63159943 64.16619873
lradius  0.006620147731 -6.507048965e-006 30.41555786
lwrist  4.824992743e-007 -3.790274832e-007 -27.73940086
lhand  -3.526086392e-031 -36.89830017 -10.55959988
lfingers  90 7.125020027 -90
lthumb  94.7907486 -25.39760971 101.056694
rclavicle  0 -4.497500157e-015 -2.743230041e-014
rhumerus  -56.46519852 -28.84929848 -58.12400055
rradius  -5.16745672e-007 2.214343908e-008 61.40319824
rwrist  -2.867388866e-005 0.1017204151 -165.7949982
rhand  -3.020371161e-031 -2.198319912 -7.641699791
rfingers  -90 -7.125020027 -90
rthumb  -86.4815979 -8.039988518 -66.26945496
rfemur  -11.47126484 15.6931057 12.74179363
rtibia  -0.3966097236 -1.078681827 18.9460907
rfoot  1.179064155 -21.81193542 -35.29432297
rtoes  4.073237419 19.60695076 -101.9865646
lfemur  -6.137395859 -16.13593483 -21.21728897
ltibia  4.377687931 -0.3608196974 11.61172771
lfoot  0.6902862191 -23.17697716 36.82752609
ltoes  -8.701386452 -18.07813835 -116.252449
38
root  34.83152615 36.55734325 -14.43109137 9.19201088 -4.961641788 3.357307673
lowerback  -8.101269722 -0.9069909453 -0.6234490871
upperback  -3.864759922 -0.7170490026 -3.235290051
thorax  0.5120210052 -0.2054090053 -3.048150063
lowerneck  -6.978040218 -13.58090019 -10.84819984
upperneck  12.04430199 -18.46468735 10.6973381
head  6.822380066 -8.67261982 3.361500025
lclavicle  0 -4.497500157e-015 -2.743230041e-014
lhumerus  -48.1554985 29.76589966 64.10980225
lradius  0.006620147731 -6.507048965e-006 30.39225578
lwrist  4.824992743e-007 -3.790274832e-007 -27.92480087
lhand  -3.519205588e-031 -36.92210007 -10.63910007
lfingers  90 7.125020027 -90
lthumb  94.81878662 -25.47488403 101.089386
rclavicle  0 -4.497500157e-015 -2.743230041e-014
rhumerus  -56.52999878 -28.56159973 -58.22159958
rradius  -5.16745672e-007 2.214343908e-008 63.14870071
rwrist  -2.867388866e-005 0.1017204151 -166.6929932
rhand  -3.008721032e-031 -2.290750027 -7.815090179
rfingers  -90 -7.125020027 -90
rthumb  -86.56887817 -7.876216888 -66.36922455
rfemur  -11.42722416 15.64617443 12.73789883
rtibia  -0.380448103 -1.117207646 18.89443207
rfoot  1.196278572 -21.88697815 -35.26237488
rtoes  4.099548817 19.60690308 -102.0650177
lfemur  -6.189897537 -16.11055565 -21.19330025
ltibia  4.331586361 -0.3580679297 11.71678734
lfoot  0.6992784142 -23.24545097 36.78599548
ltoes  -8.699289322 -18.07798767 -116.2456894
39
root  34.82799079 36.55840055 -14.4285202 9.184943199 -4.962001801 3.397406816
lowerback  -8.098890305 -0.9399319291 -0.5830927491
upperback  -3.868540049 -0.7644469738 -3.229939938
thorax  0.5039070249 -0.2297900021 -3.069279909
lowerneck  -7.003499985 -13.56919956 -10.83650017
upperneck  12.02639961 -18.44490051 10.67630005
head  6.815579891 -8.664460182 3.354520082
lclavicle  0 -4.497500157e-015 -2.743230041e-014
lhumerus  -48.25260162 29.81870079 64.00440216
lradius  0.006620147731 -6.507048965e-006 30.39714813
lwrist  4.824992743e-007 -3.790274832e-007 -28.06299973
lhand  -3.521050021e-031 -36.89720154 -10.62040043
lfingers  90 7.125020027 -90
lthumb  94.80313873 -25.45737267 101.0610275
rclavicle  0 -4.497500157e-015 -2.743230041e-014
rhumerus  -56.63090134 -28.24430084 -58.37369919
rradius  -5.16745672e-007 2.214343908e-008 64.93160248
rwrist  -2.867388866e-005 0.1017204151 -167.5200043
rhand  -3.013718639e-031 -1.75387001 -7.743070126
rfingers  -90 -7.125020027 -90
rthumb  -86.44065857 -7.971547604 -65.84251404
rfemur  -11.43259239 15.62767792 12.70921898
rtibia  -0.3982187808 -1.142670274 18.94083977
rfoot  1.162384033 -21.94080544 -35.28013992
rtoes  4.082719326 19.60682678 -102.0148315
lfemur  -6.087521076 -16.10649109 -21.28647614
ltibia  4.432491302 -0.3725135028 11.55986977
lfoot  0.7018970847 -23.15609169 36.77410507
ltoes  -8.696739197 -18.07457352 -116.2374725
40
root  34.82644089 36.55971317 -14.42556006 9.190724373 -4.988080978 3.389489889
lowerback  -8.084739685 -0.9711430073 -0.6117010117
upperback  -3.875710011 -0.8044040203 -3.220249891
thorax  0.4873690009 -0.2493609935 -3.046139956
lowerneck  -6.99861002 -13.56239986 -10.85299969
upperneck  11.99330044 -18.42899895 10.64770031
head  6.801020145 -8.661899567 3.351099968
lclavicle  0 -4.497500157e-015 -2.743230041e-014
lhumerus  -48.3492012 29.86870003 63.93780136
lradius  0.006620147731 -6.507048965e-006 30.39463425
lwrist  4.824992743e-007 -3.790274832e-007 -28.13220024
lhand  -3.519945139e-031 -36.87879944 -10.63630009
lfingers  90 7.125020027 -90
lthumb  94.79788208 -25.47358322 101.0427628
rclavicle  0 -4.497500157e-015 -2.743230041e-014
rhumerus  -56.76699829 -27.99710083 -58.45709991
rradius  -5.16745672e-007 2.214343908e-008 66.94529724
rwrist  -2.867388866e-005 0.1017204151 -167.9960022
rhand  -3.004457162e-031 -1.741930008 -7.881420135
rfingers  -90 -7.125020027 -90
rthumb  -86.49563599 -7.845932007 -65.83870697
rfemur  -11.42466068 15.6090107 12.72071838
rtibia  -0.391898036 -1.136775613 18.91640472
rfoot  1.197306633 -21.91867065 -35.20802689
rtoes  4.060878277 19.60672569 -101.9497223
lfemur  -6.122199535 -16.07177544 -21.26340485
ltibia  4.408867836 -0.3699340224 11.61226177
lfoot  0.7024857998 -23.18527794 36.75779724
ltoes  -8.689574242 -18.07260323 -116.214386
41
root  34.82753423 36.56072842 -14.4246169 9.225095749 -5.020611286 3.390239
lowerback  -8.074449539 -1.003399849 -0.672988832
upperback  -3.858289957 -0.8450509906 -3.204149961
thorax  0.4990960062 -0.2695890069 -2.998140097
lowerneck  -6.999499798 -13.5600996 -10.8458004
upperneck  11.92790031 -18.41930199 10.61789989
head  6.775430202 -8.662249565 3.343620062
lclavicle  0 -4.497500157e-015 -2.743230041e-014
lhumerus  -48.41770172 29.90909958 63.86949921
lradius  0.006620147731 -6.507048965e-006 30.39191628
lwrist  4.824992743e-007 -3.790274832e-007 -28.17569923
lhand  -3.520433361e-031 -36.84270096 -10.63549995
lfingers  90 7.125020027 -90
lthumb  94.78081512 -25.47403717 101.0040817
rclavicle  0 -4.497500157e-015 -2.743230041e-014
rhumerus  -56.89810181 -27.75040054 -58.50730133
rradius  -5.16745672e-007 2.214343908e-008 68.87220001
rwrist  -2.867388866e-005 0.1017204151 -168.7669983
rhand  -3.02540639e-031 -1.598039985 -7.569210052
rfingers  -90 -7.125020027 -90
rthumb  -86.33931732 -8.138576508 -65.68058014
rfemur  -11.47952652 15.60648632 12.70986938
rtibia  -0.3979048133 -1.140952826 18.93298721
rfoot  1.200056314 -21.91241074 -35.17512131
rtoes  4.07373476 19.60659599 -101.9880447
lfemur  -6.181849957 -16.05260277 -21.24875259
ltibia  4.390022278 -0.3776621521 11.65509796
lfoot  0.7033583522 -23.18047905 36.74090576
ltoes  -8.707871437 -18.07509613 -116.2733459
